<?xml version="1.0" encoding="utf-8"?>

<!DOCTYPE svg PUBLIC "-//W3C//DTD SVG 1.1//EN" "http://www.w3.org/Graphics/SVG/1.1/DTD/svg11.dtd">
<!-- Uploaded to: SVG Repo, www.svgrepo.com, Generator: SVG Repo Mixer Tools -->
<svg height="800px" width="800px" version="1.1" id="_x32_" xmlns="http://www.w3.org/2000/svg" xmlns:xlink="http://www.w3.org/1999/xlink" 
	 viewBox="0 0 512 512"  xml:space="preserve">
<style type="text/css">
	.st0{fill:#000000;}
</style>
<g>
	<path class="st0" d="M504.899,273.328h1.748l-69.838-137.742c-20.074-39.572-60.514-64.676-104.885-65.09h-0.259H180.616h-0.111
		c-44.363,0.414-84.803,25.518-104.878,65.09L15.506,254.163l0.008,0.008C5.657,272.18,0,292.885,0,314.855
		c0.007,69.948,56.693,126.642,126.648,126.649c49.28-0.008,91.986-28.199,112.882-69.297h0.008
		c3.377-5.953,6.154-8.856,8.228-10.212c1.074-0.703,2.028-1.125,3.294-1.458c1.252-0.326,2.844-0.534,4.94-0.534
		c2.103,0,3.688,0.208,4.946,0.534c1.881,0.518,3.148,1.155,4.976,2.784c1.8,1.63,4.021,4.428,6.539,8.872
		c20.897,41.106,63.594,69.304,112.89,69.311c69.956-0.008,126.642-56.701,126.648-126.649
		C512,300.304,509.446,286.338,504.899,273.328z M263.583,93.244h68.134c35.87,0.333,68.579,20.63,84.803,52.635l32.701,64.498
		c-18.594-11.396-40.461-17.98-63.868-17.987H263.583V93.244z M95.918,145.88c16.224-32.005,48.932-52.302,84.803-52.635h67.697
		v99.146H126.648c-23.156,0-44.786,6.465-63.254,17.632L95.918,145.88z M458.824,388.321
		c-18.838,18.824-44.741,30.427-73.473,30.435c-40.617,0.008-75.739-23.311-92.845-57.293l-0.126-0.259l-0.148-0.252
		c-4.339-7.627-9.086-13.699-15.432-17.92c-3.14-2.096-6.613-3.614-10.145-4.517c-3.54-0.918-7.102-1.26-10.656-1.26
		c-3.555,0-7.124,0.341-10.664,1.26c-5.316,1.348-10.419,4.146-14.618,8.034c-4.228,3.888-7.686,8.672-10.952,14.418l-0.149,0.252
		l-0.126,0.252c-17.113,33.975-52.228,57.293-92.844,57.286c-28.732-0.008-54.635-11.611-73.474-30.435
		c-18.816-18.839-30.42-44.742-30.426-73.466c0-18.186,4.679-35.188,12.862-50.058l0.09-0.156l10.574-20.852
		c19.645-22.223,48.34-36.234,80.374-36.234h258.703c32.656-0.007,61.84,14.618,81.522,37.632l2.732,5.392h-0.608l8.598,16.602
		c7.413,14.329,11.655,30.472,11.655,47.674C489.245,343.579,477.641,369.482,458.824,388.321z"/>
	<path class="st0" d="M126.648,245.033c-38.573,0-69.822,31.257-69.83,69.822c0.008,38.574,31.257,69.822,69.83,69.83
		c38.565-0.008,69.822-31.256,69.83-69.83C196.47,276.29,165.214,245.033,126.648,245.033z M165.303,353.51
		c-9.916,9.901-23.541,16.002-38.655,16.01c-15.121-0.008-28.739-6.109-38.655-16.01c-9.9-9.915-16.002-23.533-16.01-38.655
		c0.008-15.113,6.11-28.731,16.01-38.646c9.916-9.908,23.534-16.01,38.655-16.01c15.114,0,28.739,6.102,38.655,16.01
		c9.9,9.916,16.002,23.533,16.01,38.646C181.305,329.976,175.203,343.594,165.303,353.51z"/>
	<circle class="st0" cx="256" cy="308.835" r="16.809"/>
	<path class="st0" d="M385.352,245.033c-38.565,0-69.822,31.257-69.83,69.822c0.007,38.574,31.264,69.822,69.83,69.83
		c38.565-0.008,69.822-31.256,69.83-69.83C455.174,276.29,423.917,245.033,385.352,245.033z M424.006,353.51
		c-9.915,9.901-23.54,16.002-38.654,16.01c-15.114-0.008-28.739-6.109-38.655-16.01c-9.9-9.915-16.002-23.533-16.01-38.655
		c0.008-15.113,6.11-28.731,16.01-38.646c9.916-9.908,23.541-16.01,38.655-16.01c15.114,0,28.739,6.102,38.654,16.01
		c9.901,9.916,16.003,23.533,16.01,38.646C440.008,329.976,433.906,343.594,424.006,353.51z"/>
</g>
</svg>